{
	"asset":{
		"generator":"Khronos glTF Blender I/O v3.6.27",
		"version":"2.0"
	},
	"scene":0,
	"scenes":[
		{
			"name":"Scene",
			"nodes":[
				17
			]
		}
	],
	"nodes":[
		{
			"name":"Materials"
		},
		{
			"mesh":0,
			"name":"buckle_001_mesh_014_buckle_014_002_0"
		},
		{
			"children":[
				1
			],
			"name":"buckle_001_mesh_014"
		},
		{
			"mesh":1,
			"name":"main_001_mesh_007_main_002_006_0"
		},
		{
			"children":[
				3
			],
			"name":"main_001_mesh_007"
		},
		{
			"mesh":2,
			"name":"plate_001_mesh_003_plate_001_0"
		},
		{
			"children":[
				5
			],
			"name":"plate_001_mesh_003"
		},
		{
			"mesh":3,
			"name":"slider_001_mesh_004_slider_002_0"
		},
		{
			"children":[
				7
			],
			"name":"slider_001_mesh_004"
		},
		{
			"mesh":4,
			"name":"strap_001_mesh_014_strap_050_001_0"
		},
		{
			"children":[
				9
			],
			"name":"strap_001_mesh_014"
		},
		{
			"mesh":5,
			"name":"zipper_001_mesh_005_zipper_001_0"
		},
		{
			"children":[
				11
			],
			"name":"zipper_001_mesh_005"
		},
		{
			"children":[
				2,
				4,
				6,
				8,
				10,
				12
			],
			"name":"RootNode"
		},
		{
			"children":[
				13
			],
			"name":"ce72caf5892f4f639800617e392953fc_fbx",
			"rotation":[
				0.7071068286895752,
				0,
				0,
				0.7071068286895752
			]
		},
		{
			"children":[
				14
			],
			"name":"Sketchfab_model",
			"rotation":[
				0,
				0.70710688829422,
				-0.7071066498756409,
				3.0908619663705394e-08
			],
			"scale":[
				0.7587961554527283,
				0.7587961554527283,
				0.7587961554527283
			]
		},
		{
			"children":[
				15
			],
			"name":"Meshes"
		},
		{
			"children":[
				0,
				16
			],
			"name":"scene",
			"rotation":[
				0.7071068286895752,
				0,
				0,
				0.7071068286895752
			],
			"scale":[
				5,
				5,
				5
			]
		}
	],
	"materials":[
		{
			"doubleSided":true,
			"name":"buckle_014_002",
			"normalTexture":{
				"index":0
			},
			"pbrMetallicRoughness":{
				"baseColorTexture":{
					"index":1
				},
				"metallicRoughnessTexture":{
					"index":2
				}
			}
		},
		{
			"doubleSided":true,
			"name":"main_002_006",
			"normalTexture":{
				"index":3
			},
			"pbrMetallicRoughness":{
				"baseColorTexture":{
					"index":4
				},
				"metallicRoughnessTexture":{
					"index":5
				}
			}
		},
		{
			"doubleSided":true,
			"name":"plate_001",
			"normalTexture":{
				"index":6
			},
			"pbrMetallicRoughness":{
				"baseColorTexture":{
					"index":7
				},
				"metallicRoughnessTexture":{
					"index":8
				}
			}
		},
		{
			"doubleSided":true,
			"name":"slider_002",
			"normalTexture":{
				"index":9
			},
			"pbrMetallicRoughness":{
				"baseColorTexture":{
					"index":10
				},
				"metallicRoughnessTexture":{
					"index":11
				}
			}
		},
		{
			"doubleSided":true,
			"name":"strap_050_001",
			"normalTexture":{
				"index":12
			},
			"pbrMetallicRoughness":{
				"baseColorTexture":{
					"index":13
				},
				"metallicRoughnessTexture":{
					"index":14
				}
			}
		},
		{
			"doubleSided":true,
			"name":"zipper_001",
			"normalTexture":{
				"index":15
			},
			"pbrMetallicRoughness":{
				"baseColorTexture":{
					"index":16
				},
				"metallicRoughnessTexture":{
					"index":17
				}
			}
		}
	],
	"meshes":[
		{
			"name":"buckle_001_mesh_014_buckle_014_002_0",
			"primitives":[
				{
					"attributes":{
						"POSITION":0,
						"NORMAL":1,
						"TEXCOORD_0":2
					},
					"indices":3,
					"material":0
				}
			]
		},
		{
			"name":"main_001_mesh_007_main_002_006_0",
			"primitives":[
				{
					"attributes":{
						"POSITION":4,
						"NORMAL":5,
						"TEXCOORD_0":6
					},
					"indices":7,
					"material":1
				}
			]
		},
		{
			"name":"plate_001_mesh_003_plate_001_0",
			"primitives":[
				{
					"attributes":{
						"POSITION":8,
						"NORMAL":9,
						"TEXCOORD_0":10
					},
					"indices":11,
					"material":2
				}
			]
		},
		{
			"name":"slider_001_mesh_004_slider_002_0",
			"primitives":[
				{
					"attributes":{
						"POSITION":12,
						"NORMAL":13,
						"TEXCOORD_0":14
					},
					"indices":15,
					"material":3
				}
			]
		},
		{
			"name":"strap_001_mesh_014_strap_050_001_0",
			"primitives":[
				{
					"attributes":{
						"POSITION":16,
						"NORMAL":17,
						"TEXCOORD_0":18
					},
					"indices":19,
					"material":4
				}
			]
		},
		{
			"name":"zipper_001_mesh_005_zipper_001_0",
			"primitives":[
				{
					"attributes":{
						"POSITION":20,
						"NORMAL":21,
						"TEXCOORD_0":22
					},
					"indices":23,
					"material":5
				}
			]
		}
	],
	"textures":[
		{
			"sampler":0,
			"source":0
		},
		{
			"sampler":0,
			"source":1
		},
		{
			"sampler":0,
			"source":2
		},
		{
			"sampler":0,
			"source":3
		},
		{
			"sampler":0,
			"source":4
		},
		{
			"sampler":0,
			"source":5
		},
		{
			"sampler":0,
			"source":6
		},
		{
			"sampler":0,
			"source":7
		},
		{
			"sampler":0,
			"source":8
		},
		{
			"sampler":0,
			"source":9
		},
		{
			"sampler":0,
			"source":10
		},
		{
			"sampler":0,
			"source":11
		},
		{
			"sampler":0,
			"source":12
		},
		{
			"sampler":0,
			"source":13
		},
		{
			"sampler":0,
			"source":14
		},
		{
			"sampler":0,
			"source":15
		},
		{
			"sampler":0,
			"source":16
		},
		{
			"sampler":0,
			"source":17
		}
	],
	"images":[
		{
			"mimeType":"image/jpeg",
			"name":"buckle_014.002_normal",
			"uri":"textures/buckle_014_002_normal.jpg"
		},
		{
			"mimeType":"image/jpeg",
			"name":"buckle_014.002_baseColor",
			"uri":"textures/buckle_014_002_baseColor.jpg"
		},
		{
			"mimeType":"image/png",
			"name":"buckle_014.002_metallicRoughness_metal-buckle_014.002_metallicRoughness_rough",
			"uri":"textures/buckle_014_002_metallicRoughness_metal-buckle_014_002_metallicRoughness_rough.png"
		},
		{
			"mimeType":"image/jpeg",
			"name":"main_002.006_normal",
			"uri":"textures/main_002_006_normal.jpg"
		},
		{
			"mimeType":"image/jpeg",
			"name":"main_002.006_baseColor",
			"uri":"textures/main_002_006_baseColor.jpg"
		},
		{
			"mimeType":"image/png",
			"name":"main_002.006_metallicRoughness_metal-main_002.006_metallicRoughness_rough",
			"uri":"textures/main_002_006_metallicRoughness_metal-main_002_006_metallicRoughness_rough.png"
		},
		{
			"mimeType":"image/jpeg",
			"name":"plate_001_normal",
			"uri":"textures/plate_001_normal.jpg"
		},
		{
			"mimeType":"image/jpeg",
			"name":"plate_001_baseColor",
			"uri":"textures/plate_001_baseColor.jpg"
		},
		{
			"mimeType":"image/png",
			"name":"plate_001_metallicRoughness_metal-plate_001_metallicRoughness_rough",
			"uri":"textures/plate_001_metallicRoughness_metal-plate_001_metallicRoughness_rough.png"
		},
		{
			"mimeType":"image/jpeg",
			"name":"slider.002_normal",
			"uri":"textures/slider_002_normal.jpg"
		},
		{
			"mimeType":"image/jpeg",
			"name":"slider.002_baseColor",
			"uri":"textures/slider_002_baseColor.jpg"
		},
		{
			"mimeType":"image/png",
			"name":"slider.002_metallicRoughness_metal-slider.002_metallicRoughness_rough",
			"uri":"textures/slider_002_metallicRoughness_metal-slider_002_metallicRoughness_rough.png"
		},
		{
			"mimeType":"image/jpeg",
			"name":"strap_050.001_normal",
			"uri":"textures/strap_050_001_normal.jpg"
		},
		{
			"mimeType":"image/jpeg",
			"name":"strap_050.001_baseColor",
			"uri":"textures/strap_050_001_baseColor.jpg"
		},
		{
			"mimeType":"image/png",
			"name":"strap_050.001_metallicRoughness_metal-strap_050.001_metallicRoughness_rough",
			"uri":"textures/strap_050_001_metallicRoughness_metal-strap_050_001_metallicRoughness_rough.png"
		},
		{
			"mimeType":"image/jpeg",
			"name":"zipper.001_normal",
			"uri":"textures/zipper_001_normal.jpg"
		},
		{
			"mimeType":"image/jpeg",
			"name":"zipper.001_baseColor",
			"uri":"textures/zipper_001_baseColor.jpg"
		},
		{
			"mimeType":"image/png",
			"name":"zipper.001_metallicRoughness_metal-zipper.001_metallicRoughness_rough",
			"uri":"textures/zipper_001_metallicRoughness_metal-zipper_001_metallicRoughness_rough.png"
		}
	],
	"accessors":[
		{
			"bufferView":0,
			"componentType":5126,
			"count":31286,
			"max":[
				0.25088250637054443,
				0.4028629660606384,
				-0.07700604200363159
			],
			"min":[
				-0.23303931951522827,
				-0.28652864694595337,
				-0.9185313582420349
			],
			"type":"VEC3"
		},
		{
			"bufferView":1,
			"componentType":5126,
			"count":31286,
			"type":"VEC3"
		},
		{
			"bufferView":2,
			"componentType":5126,
			"count":31286,
			"type":"VEC2"
		},
		{
			"bufferView":3,
			"componentType":5123,
			"count":146856,
			"type":"SCALAR"
		},
		{
			"bufferView":4,
			"componentType":5126,
			"count":16982,
			"max":[
				0.26341670751571655,
				0.12145579606294632,
				-0.004180967807769775
			],
			"min":[
				-0.24557346105575562,
				-0.259190171957016,
				-0.8584075570106506
			],
			"type":"VEC3"
		},
		{
			"bufferView":5,
			"componentType":5126,
			"count":16982,
			"type":"VEC3"
		},
		{
			"bufferView":6,
			"componentType":5126,
			"count":16982,
			"type":"VEC2"
		},
		{
			"bufferView":7,
			"componentType":5123,
			"count":89820,
			"type":"SCALAR"
		},
		{
			"bufferView":8,
			"componentType":5126,
			"count":298,
			"max":[
				0.04032352194190025,
				-0.11832835525274277,
				-0.7821105122566223
			],
			"min":[
				-0.022480275481939316,
				-0.13821008801460266,
				-0.8277540802955627
			],
			"type":"VEC3"
		},
		{
			"bufferView":9,
			"componentType":5126,
			"count":298,
			"type":"VEC3"
		},
		{
			"bufferView":10,
			"componentType":5126,
			"count":298,
			"type":"VEC2"
		},
		{
			"bufferView":11,
			"componentType":5123,
			"count":1488,
			"type":"SCALAR"
		},
		{
			"bufferView":12,
			"componentType":5126,
			"count":4428,
			"max":[
				0.036337487399578094,
				-0.05561571568250656,
				-0.3734285235404968
			],
			"min":[
				-0.17618012428283691,
				-0.22751492261886597,
				-0.864046037197113
			],
			"type":"VEC3"
		},
		{
			"bufferView":13,
			"componentType":5126,
			"count":4428,
			"type":"VEC3"
		},
		{
			"bufferView":14,
			"componentType":5126,
			"count":4428,
			"type":"VEC2"
		},
		{
			"bufferView":15,
			"componentType":5123,
			"count":20052,
			"type":"SCALAR"
		},
		{
			"bufferView":16,
			"componentType":5126,
			"count":47650,
			"max":[
				0.2728479206562042,
				0.43001097440719604,
				0.0012462139129638672
			],
			"min":[
				-0.2546592056751251,
				-0.282230943441391,
				-0.9177039265632629
			],
			"type":"VEC3"
		},
		{
			"bufferView":17,
			"componentType":5126,
			"count":47650,
			"type":"VEC3"
		},
		{
			"bufferView":18,
			"componentType":5126,
			"count":47650,
			"type":"VEC2"
		},
		{
			"bufferView":19,
			"componentType":5123,
			"count":233124,
			"type":"SCALAR"
		},
		{
			"bufferView":20,
			"componentType":5126,
			"count":9042,
			"max":[
				0.060349978506565094,
				-0.04995260387659073,
				-0.34705907106399536
			],
			"min":[
				-0.17543846368789673,
				-0.23703700304031372,
				-0.8620687127113342
			],
			"type":"VEC3"
		},
		{
			"bufferView":21,
			"componentType":5126,
			"count":9042,
			"type":"VEC3"
		},
		{
			"bufferView":22,
			"componentType":5126,
			"count":9042,
			"type":"VEC2"
		},
		{
			"bufferView":23,
			"componentType":5123,
			"count":48816,
			"type":"SCALAR"
		}
	],
	"bufferViews":[
		{
			"buffer":0,
			"byteLength":375432,
			"byteOffset":0,
			"target":34962
		},
		{
			"buffer":0,
			"byteLength":375432,
			"byteOffset":375432,
			"target":34962
		},
		{
			"buffer":0,
			"byteLength":250288,
			"byteOffset":750864,
			"target":34962
		},
		{
			"buffer":0,
			"byteLength":293712,
			"byteOffset":1001152,
			"target":34963
		},
		{
			"buffer":0,
			"byteLength":203784,
			"byteOffset":1294864,
			"target":34962
		},
		{
			"buffer":0,
			"byteLength":203784,
			"byteOffset":1498648,
			"target":34962
		},
		{
			"buffer":0,
			"byteLength":135856,
			"byteOffset":1702432,
			"target":34962
		},
		{
			"buffer":0,
			"byteLength":179640,
			"byteOffset":1838288,
			"target":34963
		},
		{
			"buffer":0,
			"byteLength":3576,
			"byteOffset":2017928,
			"target":34962
		},
		{
			"buffer":0,
			"byteLength":3576,
			"byteOffset":2021504,
			"target":34962
		},
		{
			"buffer":0,
			"byteLength":2384,
			"byteOffset":2025080,
			"target":34962
		},
		{
			"buffer":0,
			"byteLength":2976,
			"byteOffset":2027464,
			"target":34963
		},
		{
			"buffer":0,
			"byteLength":53136,
			"byteOffset":2030440,
			"target":34962
		},
		{
			"buffer":0,
			"byteLength":53136,
			"byteOffset":2083576,
			"target":34962
		},
		{
			"buffer":0,
			"byteLength":35424,
			"byteOffset":2136712,
			"target":34962
		},
		{
			"buffer":0,
			"byteLength":40104,
			"byteOffset":2172136,
			"target":34963
		},
		{
			"buffer":0,
			"byteLength":571800,
			"byteOffset":2212240,
			"target":34962
		},
		{
			"buffer":0,
			"byteLength":571800,
			"byteOffset":2784040,
			"target":34962
		},
		{
			"buffer":0,
			"byteLength":381200,
			"byteOffset":3355840,
			"target":34962
		},
		{
			"buffer":0,
			"byteLength":466248,
			"byteOffset":3737040,
			"target":34963
		},
		{
			"buffer":0,
			"byteLength":108504,
			"byteOffset":4203288,
			"target":34962
		},
		{
			"buffer":0,
			"byteLength":108504,
			"byteOffset":4311792,
			"target":34962
		},
		{
			"buffer":0,
			"byteLength":72336,
			"byteOffset":4420296,
			"target":34962
		},
		{
			"buffer":0,
			"byteLength":97632,
			"byteOffset":4492632,
			"target":34963
		}
	],
	"samplers":[
		{
			"magFilter":9729,
			"minFilter":9987
		}
	],
	"buffers":[
		{
			"byteLength":4590264,
			"uri":"Backpack_Military.bin"
		}
	]
}
